<svg width="26" height="26" viewBox="0 0 26 26" fill="none" xmlns="http://www.w3.org/2000/svg">
<path d="M7.04169 18.9583L15.1667 15.1667L18.9584 7.04167L10.8334 10.8333L7.04169 18.9583ZM13 14.0833C12.6931 14.0833 12.436 13.9793 12.2287 13.7713C12.0207 13.5641 11.9167 13.3069 11.9167 13C11.9167 12.6931 12.0207 12.4356 12.2287 12.2276C12.436 12.0203 12.6931 11.9167 13 11.9167C13.307 11.9167 13.5644 12.0203 13.7724 12.2276C13.9797 12.4356 14.0834 12.6931 14.0834 13C14.0834 13.3069 13.9797 13.5641 13.7724 13.7713C13.5644 13.9793 13.307 14.0833 13 14.0833ZM13 23.8333C11.5014 23.8333 10.0931 23.5488 8.77502 22.9797C7.45697 22.4113 6.31044 21.6396 5.33544 20.6646C4.36044 19.6896 3.58874 18.5431 3.02035 17.225C2.45124 15.9069 2.16669 14.4986 2.16669 13C2.16669 11.5014 2.45124 10.0931 3.02035 8.77501C3.58874 7.45695 4.36044 6.31042 5.33544 5.33542C6.31044 4.36042 7.45697 3.58837 8.77502 3.01926C10.0931 2.45087 11.5014 2.16667 13 2.16667C14.4986 2.16667 15.907 2.45087 17.225 3.01926C18.5431 3.58837 19.6896 4.36042 20.6646 5.33542C21.6396 6.31042 22.4113 7.45695 22.9797 8.77501C23.5488 10.0931 23.8334 11.5014 23.8334 13C23.8334 14.4986 23.5488 15.9069 22.9797 17.225C22.4113 18.5431 21.6396 19.6896 20.6646 20.6646C19.6896 21.6396 18.5431 22.4113 17.225 22.9797C15.907 23.5488 14.4986 23.8333 13 23.8333ZM13 21.6667C15.4195 21.6667 17.4688 20.8271 19.1479 19.1479C20.8271 17.4688 21.6667 15.4194 21.6667 13C21.6667 10.5806 20.8271 8.53126 19.1479 6.85209C17.4688 5.17292 15.4195 4.33334 13 4.33334C10.5806 4.33334 8.53127 5.17292 6.8521 6.85209C5.17294 8.53126 4.33335 10.5806 4.33335 13C4.33335 15.4194 5.17294 17.4688 6.8521 19.1479C8.53127 20.8271 10.5806 21.6667 13 21.6667Z" fill="#087F8C"/>
</svg>
