<svg width="26" height="26" viewBox="0 0 26 26" fill="none" xmlns="http://www.w3.org/2000/svg">
<path d="M22.3438 4.67188H18.0781V3.04688C18.0781 2.93516 17.9867 2.84375 17.875 2.84375H16.4531C16.3414 2.84375 16.25 2.93516 16.25 3.04688V4.67188H9.75V3.04688C9.75 2.93516 9.65859 2.84375 9.54688 2.84375H8.125C8.01328 2.84375 7.92188 2.93516 7.92188 3.04688V4.67188H3.65625C3.20684 4.67188 2.84375 5.03496 2.84375 5.48438V22.3438C2.84375 22.7932 3.20684 23.1562 3.65625 23.1562H22.3438C22.7932 23.1562 23.1562 22.7932 23.1562 22.3438V5.48438C23.1562 5.03496 22.7932 4.67188 22.3438 4.67188ZM21.3281 21.3281H4.67188V11.6797H21.3281V21.3281ZM4.67188 9.95312V6.5H7.92188V7.71875C7.92188 7.83047 8.01328 7.92188 8.125 7.92188H9.54688C9.65859 7.92188 9.75 7.83047 9.75 7.71875V6.5H16.25V7.71875C16.25 7.83047 16.3414 7.92188 16.4531 7.92188H17.875C17.9867 7.92188 18.0781 7.83047 18.0781 7.71875V6.5H21.3281V9.95312H4.67188Z" fill="#087F8C"/>
</svg>
