<svg width="26" height="26" viewBox="0 0 26 26" fill="none" xmlns="http://www.w3.org/2000/svg">
<path d="M7.3125 5.6875C4.63125 5.6875 2.4375 7.88125 2.4375 10.5625C2.4375 12.1745 3.23131 13.6094 4.44356 14.4983C2.301 15.561 0.8125 17.7645 0.8125 20.3125H2.4375C2.4375 17.6117 4.61175 15.4375 7.3125 15.4375C10.0133 15.4375 12.1875 17.6117 12.1875 20.3125H13.8125C13.8125 17.6117 15.9867 15.4375 18.6875 15.4375C21.3883 15.4375 23.5625 17.6117 23.5625 20.3125H25.1875C25.1875 17.7637 23.699 15.561 21.5564 14.4983C22.1768 14.0462 22.6818 13.4542 23.0303 12.7704C23.3789 12.0865 23.5612 11.3301 23.5625 10.5625C23.5625 7.88125 21.3687 5.6875 18.6875 5.6875C16.0063 5.6875 13.8125 7.88125 13.8125 10.5625C13.8125 12.1745 14.6063 13.6094 15.8186 14.4983C14.6314 15.0819 13.6488 16.0113 13 17.1641C12.3512 16.0113 11.3686 15.0819 10.1814 14.4983C10.8018 14.0462 11.3068 13.4542 11.6553 12.7704C12.0039 12.0865 12.1862 11.3301 12.1875 10.5625C12.1875 7.88125 9.99375 5.6875 7.3125 5.6875ZM7.3125 7.3125C9.11869 7.3125 10.5625 8.75631 10.5625 10.5625C10.5625 12.3687 9.11869 13.8125 7.3125 13.8125C5.50631 13.8125 4.0625 12.3687 4.0625 10.5625C4.0625 8.75631 5.50631 7.3125 7.3125 7.3125ZM18.6875 7.3125C20.4937 7.3125 21.9375 8.75631 21.9375 10.5625C21.9375 12.3687 20.4937 13.8125 18.6875 13.8125C16.8813 13.8125 15.4375 12.3687 15.4375 10.5625C15.4375 8.75631 16.8813 7.3125 18.6875 7.3125Z" fill="#087F8C"/>
</svg>
