<svg width="26" height="26" viewBox="0 0 26 26" fill="none" xmlns="http://www.w3.org/2000/svg">
<path fill-rule="evenodd" clip-rule="evenodd" d="M17.875 10.0398C18.505 10.2283 18.9583 10.2917 18.9583 10.2917V8.66667H20.0417C20.76 8.66667 21.4488 8.38133 21.9567 7.87341C22.4647 7.3655 22.75 6.67663 22.75 5.95833C22.75 5.24004 22.4647 4.55116 21.9567 4.04325C21.4488 3.53534 20.76 3.25 20.0417 3.25H16.9195C16.1673 3.25 15.4459 3.54881 14.914 4.08069C14.3821 4.61258 14.0833 5.33397 14.0833 6.08617C14.0833 8.53342 16.4385 9.61025 17.875 10.0398ZM21.6667 5.95833C21.6667 6.38931 21.4955 6.80264 21.1907 7.10738C20.886 7.41213 20.4726 7.58333 20.0417 7.58333H17.875V8.90229C17.5778 8.80138 17.2877 8.68068 17.0067 8.541C15.9326 8.00258 15.1667 7.23667 15.1667 6.08617C15.1667 5.62129 15.3513 5.17545 15.6801 4.84673C16.0088 4.51801 16.4546 4.33333 16.9195 4.33333H20.0417C20.4726 4.33333 20.886 4.50454 21.1907 4.80928C21.4955 5.11403 21.6667 5.52736 21.6667 5.95833ZM8.02588 9.74621C7.31603 9.72163 6.64428 9.41907 6.15545 8.90377C5.66663 8.38847 5.39989 7.70171 5.41275 6.99155C5.42562 6.2814 5.71705 5.60474 6.22421 5.10748C6.73138 4.61022 7.41365 4.33219 8.12392 4.33333H9.84046C10.5348 4.33333 11.2006 4.60914 11.6916 5.10009C12.1825 5.59104 12.4583 6.2569 12.4583 6.95121C12.4583 9.14063 10.4921 10.1416 9.20833 10.5625C8.5865 10.7662 8.125 10.8333 8.125 10.8333V9.75L8.02588 9.74621V9.74621ZM9.20833 8.70512L8.06542 8.66396C7.63592 8.65462 7.22762 8.47548 6.92992 8.16576C6.63222 7.85604 6.46938 7.44097 6.47704 7.01145C6.48471 6.58192 6.66226 6.17293 6.97083 5.87403C7.27939 5.57512 7.69382 5.41067 8.12337 5.41667H9.83992C10.0415 5.4166 10.2411 5.45624 10.4273 5.53332C10.6136 5.61041 10.7828 5.72343 10.9254 5.86593C11.0679 6.00843 11.181 6.17763 11.2581 6.36384C11.3353 6.55005 11.375 6.74964 11.375 6.95121C11.375 7.9885 10.7158 8.66829 9.79117 9.15037C9.59617 9.25221 9.39846 9.33888 9.20833 9.41254V8.70512ZM15.1667 13C15.1667 14.1971 14.1971 15.1667 13 15.1667C11.8029 15.1667 10.8333 14.1971 10.8333 13C10.8333 11.8029 11.8029 10.8333 13 10.8333C14.1971 10.8333 15.1667 11.8029 15.1667 13ZM14.0833 13C14.0833 13.2873 13.9692 13.5629 13.766 13.766C13.5629 13.9692 13.2873 14.0833 13 14.0833C12.7127 14.0833 12.4371 13.9692 12.234 13.766C12.0308 13.5629 11.9167 13.2873 11.9167 13C11.9167 12.7127 12.0308 12.4371 12.234 12.234C12.4371 12.0308 12.7127 11.9167 13 11.9167C13.2873 11.9167 13.5629 12.0308 13.766 12.234C13.9692 12.4371 14.0833 12.7127 14.0833 13V13ZM10.2917 14.0833C10.2917 15.2804 9.32208 16.25 8.125 16.25C6.92792 16.25 5.95833 15.2804 5.95833 14.0833C5.95833 12.8863 6.92792 11.9167 8.125 11.9167C9.32208 11.9167 10.2917 12.8863 10.2917 14.0833ZM9.20833 14.0833C9.20833 14.3707 9.0942 14.6462 8.89103 14.8494C8.68787 15.0525 8.41232 15.1667 8.125 15.1667C7.83768 15.1667 7.56213 15.0525 7.35897 14.8494C7.1558 14.6462 7.04167 14.3707 7.04167 14.0833C7.04167 13.796 7.1558 13.5205 7.35897 13.3173C7.56213 13.1141 7.83768 13 8.125 13C8.41232 13 8.68787 13.1141 8.89103 13.3173C9.0942 13.5205 9.20833 13.796 9.20833 14.0833V14.0833ZM3.25 19.7952C3.25 18.1583 6.49783 17.3333 8.125 17.3333C8.44188 17.3333 8.8205 17.3648 9.22458 17.427C9.95042 16.8946 11.2813 16.25 13 16.25C14.7182 16.25 16.049 16.8946 16.776 17.427C17.1395 17.3684 17.5068 17.3371 17.875 17.3333C19.5022 17.3333 22.75 18.1583 22.75 19.7952V22.75H3.25V19.7952ZM11.7282 19.5125C11.9167 19.688 11.9167 19.7795 11.9167 19.7952V21.6667H4.33333V19.7952C4.33333 19.779 4.33333 19.688 4.52183 19.5125C4.71846 19.3288 5.04292 19.1333 5.48383 18.9545C6.36783 18.597 7.44792 18.4167 8.125 18.4167C8.80208 18.4167 9.88217 18.597 10.7662 18.9545C11.2071 19.1333 11.5315 19.3288 11.7282 19.5125ZM15.2436 17.797C14.5355 17.49 13.7718 17.3321 13 17.3333C12.103 17.3333 11.3403 17.5424 10.757 17.797C11.9567 18.2 13 18.8673 13 19.7958C13 18.8673 14.0433 18.2005 15.2436 17.797V17.797ZM21.6667 19.7958C21.6667 19.7795 21.6667 19.688 21.4782 19.5125C21.2815 19.3288 20.9571 19.1333 20.5162 18.9545C19.6322 18.597 18.5521 18.4167 17.875 18.4167C17.1979 18.4167 16.1178 18.597 15.2338 18.9545C14.7929 19.1333 14.4685 19.3288 14.2718 19.5125C14.0833 19.688 14.0833 19.7795 14.0833 19.7952V21.6667H21.6667V19.7952V19.7958ZM17.875 16.25C19.0721 16.25 20.0417 15.2804 20.0417 14.0833C20.0417 12.8863 19.0721 11.9167 17.875 11.9167C16.6779 11.9167 15.7083 12.8863 15.7083 14.0833C15.7083 15.2804 16.6779 16.25 17.875 16.25ZM17.875 15.1667C18.1623 15.1667 18.4379 15.0525 18.641 14.8494C18.8442 14.6462 18.9583 14.3707 18.9583 14.0833C18.9583 13.796 18.8442 13.5205 18.641 13.3173C18.4379 13.1141 18.1623 13 17.875 13C17.5877 13 17.3121 13.1141 17.109 13.3173C16.9058 13.5205 16.7917 13.796 16.7917 14.0833C16.7917 14.3707 16.9058 14.6462 17.109 14.8494C17.3121 15.0525 17.5877 15.1667 17.875 15.1667Z" fill="#087F8C"/>
</svg>
