<svg width="26" height="26" viewBox="0 0 26 26" fill="none" xmlns="http://www.w3.org/2000/svg">
<path d="M13 18.4167V22.75M11.375 3.25H4.875C4.44402 3.25 4.0307 3.4212 3.72595 3.72595C3.4212 4.0307 3.25 4.44402 3.25 4.875V16.7917C3.25 17.2226 3.4212 17.636 3.72595 17.9407C4.0307 18.2455 4.44402 18.4167 4.875 18.4167H21.125C21.556 18.4167 21.9693 18.2455 22.274 17.9407C22.5788 17.636 22.75 17.2226 22.75 16.7917V11.375L11.375 3.25Z" stroke="#087F8C" stroke-width="2.16667" stroke-linecap="round" stroke-linejoin="round"/>
<path d="M7.58331 22.75H18.4166M17.3333 3.25L15.1666 5.41667L17.3333 7.58333V3.25ZM20.5833 3.25L22.75 5.41667L20.5833 7.58333V3.25Z" stroke="#087F8C" stroke-width="2.16667" stroke-linecap="round" stroke-linejoin="round"/>
</svg>
