<svg width="26" height="26" viewBox="0 0 26 26" fill="none" xmlns="http://www.w3.org/2000/svg">
<g clip-path="url(#clip0_160_502)">
<path d="M24.3754 4.86159H17.8855V3.28737C17.8855 1.94309 16.7923 0.849874 15.448 0.849874H10.5621C9.21779 0.849874 8.12457 1.94309 8.12457 3.28737V4.86159H1.62539C0.732041 4.86159 0.000385254 5.59325 0.000385254 6.48659V12.1806H-0.000427246V13.8056H0.000385254V23.5255C0.000385254 24.4189 0.732041 25.1505 1.62539 25.1505H24.3754C25.2687 25.1505 26.0004 24.4189 26.0004 23.5255V6.48659C26.0004 5.59325 25.2687 4.86159 24.3754 4.86159H24.3754ZM9.74957 3.28737C9.74957 2.83887 10.1136 2.47487 10.5621 2.47487H15.448C15.8965 2.47487 16.2605 2.83887 16.2605 3.28737V4.86159H9.74957V3.28737ZM1.62541 6.48659H24.3754V12.1806H15.4286V11.349C15.4286 10.4532 14.6993 9.724 13.8036 9.724H12.185C11.2893 9.724 10.56 10.4532 10.56 11.349V12.1806H1.62544V6.48659H1.62541ZM13.8048 15.4408H12.1846V11.349H13.8031L13.8048 15.4408ZM1.62539 23.5251V13.8052H10.5596V15.4403C10.5596 16.3362 11.2889 17.0653 12.1846 17.0653H13.8031C14.6989 17.0653 15.4281 16.3362 15.4281 15.4403V13.8052H24.375V23.5251H1.62539Z" fill="#087F8C"/>
</g>
<defs>
<clipPath id="clip0_160_502">
<rect width="26" height="26" fill="white"/>
</clipPath>
</defs>
</svg>
