<svg width="26" height="26" viewBox="0 0 26 26" fill="none" xmlns="http://www.w3.org/2000/svg">
<path d="M22.4936 13.551C22.9201 12.9873 23.1562 12.2967 23.1562 11.5781C23.1562 10.4381 22.5189 9.35898 21.4932 8.75722C21.2291 8.60233 20.9284 8.5208 20.6223 8.52109H14.5336L14.6859 5.40058C14.7215 4.64648 14.4549 3.93046 13.9369 3.38456C13.6827 3.1155 13.376 2.90141 13.0358 2.75555C12.6956 2.60969 12.3291 2.53514 11.959 2.53652C10.6387 2.53652 9.4707 3.42519 9.12031 4.69726L6.93926 12.5937H3.65625C3.20684 12.5937 2.84375 12.9568 2.84375 13.4062V22.6484C2.84375 23.0978 3.20684 23.4609 3.65625 23.4609H18.9236C19.1572 23.4609 19.3857 23.4152 19.5965 23.3238C20.8051 22.8084 21.5846 21.6277 21.5846 20.3176C21.5846 19.9977 21.5389 19.6828 21.4475 19.3781C21.874 18.8144 22.1102 18.1238 22.1102 17.4053C22.1102 17.0853 22.0645 16.7705 21.973 16.4658C22.3996 15.9021 22.6357 15.2115 22.6357 14.493C22.6307 14.173 22.585 13.8557 22.4936 13.551ZM4.67188 21.6328V14.4219H6.72852V21.6328H4.67188ZM20.8305 12.6699L20.2744 13.1523L20.6273 13.7973C20.7436 14.0097 20.8039 14.2482 20.8025 14.4904C20.8025 14.9094 20.6197 15.308 20.3049 15.5822L19.7488 16.0646L20.1018 16.7096C20.218 16.922 20.2783 17.1606 20.277 17.4027C20.277 17.8217 20.0941 18.2203 19.7793 18.4945L19.2232 18.9769L19.5762 19.6219C19.6924 19.8343 19.7527 20.0729 19.7514 20.315C19.7514 20.8838 19.4162 21.3967 18.8982 21.6303H8.35352V14.3406L10.8799 5.1873C10.945 4.95269 11.0849 4.74571 11.2782 4.59772C11.4716 4.44973 11.7079 4.3688 11.9514 4.36718C12.1443 4.36718 12.3348 4.42304 12.4871 4.5373C12.7385 4.72519 12.873 5.00956 12.8578 5.31171L12.6141 10.3492H20.5969C21.0488 10.626 21.3281 11.0932 21.3281 11.5781C21.3281 11.9971 21.1453 12.3932 20.8305 12.6699Z" fill="#087F8C"/>
</svg>
