<svg width="31" height="31" viewBox="0 0 31 31" fill="none" xmlns="http://www.w3.org/2000/svg">
<path d="M14.0469 15.5C14.0469 15.8854 14.2 16.255 14.4725 16.5275C14.745 16.8 15.1146 16.9531 15.5 16.9531C15.8854 16.9531 16.255 16.8 16.5275 16.5275C16.8 16.255 16.9531 15.8854 16.9531 15.5C16.9531 15.1146 16.8 14.745 16.5275 14.4725C16.255 14.2 15.8854 14.0469 15.5 14.0469C15.1146 14.0469 14.745 14.2 14.4725 14.4725C14.2 14.745 14.0469 15.1146 14.0469 15.5ZM20.1016 15.5C20.1016 15.8854 20.2546 16.255 20.5272 16.5275C20.7997 16.8 21.1693 16.9531 21.5547 16.9531C21.9401 16.9531 22.3097 16.8 22.5822 16.5275C22.8547 16.255 23.0078 15.8854 23.0078 15.5C23.0078 15.1146 22.8547 14.745 22.5822 14.4725C22.3097 14.2 21.9401 14.0469 21.5547 14.0469C21.1693 14.0469 20.7997 14.2 20.5272 14.4725C20.2546 14.745 20.1016 15.1146 20.1016 15.5ZM7.99218 15.5C7.99218 15.8854 8.14527 16.255 8.41779 16.5275C8.6903 16.8 9.05991 16.9531 9.4453 16.9531C9.83069 16.9531 10.2003 16.8 10.4728 16.5275C10.7453 16.255 10.8984 15.8854 10.8984 15.5C10.8984 15.1146 10.7453 14.745 10.4728 14.4725C10.2003 14.2 9.83069 14.0469 9.4453 14.0469C9.05991 14.0469 8.6903 14.2 8.41779 14.4725C8.14527 14.745 7.99218 15.1146 7.99218 15.5ZM28.009 10.2445C27.3248 8.61885 26.3439 7.15967 25.0936 5.90635C23.8521 4.66028 22.3782 3.66981 20.7555 2.99102C19.0904 2.2917 17.3224 1.9375 15.5 1.9375H15.4394C13.6049 1.94658 11.8278 2.30986 10.1567 3.02432C8.54787 3.71007 7.0878 4.7023 5.8579 5.9457C4.61972 7.196 3.64794 8.64912 2.97587 10.2688C2.27958 11.9459 1.92841 13.729 1.93749 15.5636C1.94776 17.666 2.44515 19.7374 3.39061 21.6152V26.2168C3.39061 26.5861 3.53733 26.9403 3.79849 27.2015C4.05965 27.4627 4.41386 27.6094 4.78319 27.6094H9.38778C11.2656 28.5548 13.337 29.0522 15.4394 29.0625H15.503C17.3164 29.0625 19.0753 28.7113 20.7312 28.0241C22.3458 27.3534 23.8142 26.3745 25.0543 25.1421C26.3046 23.9039 27.2885 22.4568 27.9757 20.8433C28.6901 19.1722 29.0534 17.3951 29.0625 15.5605C29.0716 13.7169 28.7143 11.9277 28.009 10.2445ZM23.4347 23.5043C21.3125 25.6053 18.4971 26.7617 15.5 26.7617H15.4485C13.623 26.7526 11.8097 26.2985 10.2082 25.4448L9.95389 25.3086H5.6914V21.0461L5.55516 20.7918C4.70145 19.1903 4.24735 17.377 4.23827 15.5515C4.22616 12.5332 5.37958 9.69961 7.49569 7.56533C9.60878 5.43105 12.4333 4.25039 15.4516 4.23828H15.503C17.0167 4.23828 18.4849 4.53193 19.8684 5.11318C21.2186 5.6793 22.4296 6.49365 23.471 7.53506C24.5094 8.57344 25.3267 9.7874 25.8929 11.1376C26.4802 12.5362 26.7738 14.0196 26.7678 15.5515C26.7496 18.5667 25.5659 21.3912 23.4347 23.5043Z" fill="#087F8C"/>
</svg>
