<svg width="31" height="31" viewBox="0 0 31 31" fill="none" xmlns="http://www.w3.org/2000/svg">
<path d="M15.5 28.4167C16.9209 28.4167 18.0834 27.2542 18.0834 25.8334H12.9167C12.9167 27.2542 14.0792 28.4167 15.5 28.4167ZM23.25 20.6667V14.2084C23.25 10.2429 21.1446 6.92335 17.4375 6.04502V5.16669C17.4375 4.0946 16.5721 3.22919 15.5 3.22919C14.4279 3.22919 13.5625 4.0946 13.5625 5.16669V6.04502C9.86835 6.92335 7.75002 10.23 7.75002 14.2084V20.6667L5.16669 23.25V24.5417H25.8334V23.25L23.25 20.6667ZM20.6667 21.9584H10.3334V14.2084C10.3334 11.005 12.2838 8.39585 15.5 8.39585C18.7163 8.39585 20.6667 11.005 20.6667 14.2084V21.9584Z" fill="#087F8C"/>
</svg>
