<svg width="26" height="26" viewBox="0 0 26 26" fill="none" xmlns="http://www.w3.org/2000/svg">
<path d="M21.6666 23.8333V4.33333C21.6666 3.13842 20.6949 2.16667 19.5 2.16667H6.49998C5.30506 2.16667 4.33331 3.13842 4.33331 4.33333V23.8333L13 18.8803L21.6666 23.8333ZM6.49998 10.8333V4.33333H19.5V20.0991L13 16.3854L6.49998 20.0991V10.8333Z" fill="#087F8C"/>
<path d="M16.6931 10.3047C17.0842 9.90167 17.3268 9.34267 17.3268 8.72733C17.3268 8.112 17.0852 7.55408 16.6931 7.15C16.4951 6.94387 16.2576 6.77977 15.9948 6.66753C15.732 6.55529 15.4492 6.4972 15.1634 6.49675C15.1634 6.49675 14.0844 6.4935 13 7.6115C11.9156 6.4935 10.8366 6.49675 10.8366 6.49675C10.2386 6.49675 9.69799 6.74592 9.30691 7.15C8.91474 7.55408 8.67316 8.11092 8.67316 8.72733C8.67316 9.34375 8.91474 9.90167 9.30691 10.3047L13 14.3032L16.6931 10.3047Z" fill="#087F8C"/>
</svg>
