<svg width="31" height="31" viewBox="0 0 31 31" fill="none" xmlns="http://www.w3.org/2000/svg">
<path d="M15.5861 9.47223C12.2278 9.47223 9.55832 12.1417 9.55832 15.5C9.55832 18.8583 12.2278 21.5278 15.5861 21.5278C18.9444 21.5278 21.6139 18.8583 21.6139 15.5C21.6139 12.1417 18.9444 9.47223 15.5861 9.47223ZM15.5861 19.8056C13.175 19.8056 11.2805 17.9111 11.2805 15.5C11.2805 13.0889 13.175 11.1945 15.5861 11.1945C17.9972 11.1945 19.8917 13.0889 19.8917 15.5C19.8917 17.9111 17.9972 19.8056 15.5861 19.8056Z" fill="#087F8C"/>
<path d="M28.2444 12.6583L25.8333 11.8833L25.3167 10.5917L26.5222 8.35278C26.7806 7.83612 26.6944 7.14723 26.2639 6.71667L24.1972 4.65001C23.7667 4.21945 23.0778 4.13334 22.5611 4.39167L20.3222 5.59723L19.0306 5.08056L18.2556 2.66945C18.0833 2.15278 17.5667 1.72223 16.9639 1.72223H14.0361C13.4333 1.72223 12.9167 2.15278 12.8306 2.75556L12.0556 5.16667C11.5389 5.25278 11.1083 5.42501 10.6778 5.68334L8.4389 4.47778C7.92223 4.21945 7.23334 4.30556 6.80278 4.73612L4.73612 6.80278C4.30556 7.23334 4.21945 7.92223 4.47778 8.4389L5.59723 10.5917C5.42501 11.0222 5.25278 11.5389 5.08056 11.9694L2.66945 12.7445C2.15278 12.9167 1.72223 13.4333 1.72223 14.0361V16.9639C1.72223 17.5667 2.15278 18.0833 2.75556 18.2556L5.16667 19.0306L5.68334 20.3222L4.47778 22.5611C4.21945 23.0778 4.30556 23.7667 4.73612 24.1972L6.80278 26.2639C7.23334 26.6944 7.92223 26.7806 8.4389 26.5222L10.6778 25.3167L11.9694 25.8333L12.7445 28.3306C12.9167 28.8472 13.4333 29.2778 14.0361 29.2778H16.9639C17.5667 29.2778 18.0833 28.8472 18.2556 28.3306L19.0306 25.8333L20.3222 25.3167L22.5611 26.5222C23.0778 26.7806 23.7667 26.6944 24.1972 26.2639L26.2639 24.1972C26.6944 23.7667 26.7806 23.0778 26.5222 22.5611L25.3167 20.3222L25.8333 19.0306L28.3306 18.2556C28.8472 18.0833 29.2778 17.5667 29.2778 16.9639V14.0361C29.2778 13.4333 28.8472 12.8306 28.2444 12.6583ZM27.5556 16.7056L24.4556 17.6528L24.3694 18.0833L23.5944 19.8917L23.3361 20.3222L24.8861 23.1639L23.1639 24.8861L20.3222 23.3361L19.8917 23.5944C19.2889 23.9389 18.6861 24.1972 18.0833 24.3694L17.6528 24.4556L16.7056 27.5556H14.2945L13.3472 24.4556L12.9167 24.3694L11.1083 23.5944L10.6778 23.3361L7.83612 24.8861L6.1139 23.1639L7.66389 20.3222L7.40556 19.8917C7.06112 19.2889 6.80278 18.6861 6.63056 18.0833L6.54445 17.6528L3.44445 16.7056V14.2945L6.37223 13.4333L6.54445 13.0028C6.71667 12.3139 6.97501 11.7111 7.31945 11.1083L7.57778 10.6778L6.1139 7.83612L7.83612 6.1139L10.5917 7.66389L11.0222 7.40556C11.625 7.06112 12.2278 6.80278 12.9167 6.63056L13.3472 6.45834L14.2945 3.44445H16.7056L17.6528 6.45834L18.0833 6.63056C18.6861 6.80278 19.2889 7.06112 19.8917 7.40556L20.3222 7.66389L23.1639 6.1139L24.8861 7.83612L23.3361 10.6778L23.5944 11.1083C23.9389 11.7111 24.1972 12.3139 24.3694 12.9167L24.4556 13.3472L27.5556 14.2945V16.7056Z" fill="#087F8C"/>
</svg>
