<svg width="26" height="26" viewBox="0 0 26 26" fill="none" xmlns="http://www.w3.org/2000/svg">
<path d="M14.0833 7.6375V4.33333C14.0833 4.04602 14.1975 3.77047 14.4006 3.5673C14.6038 3.36414 14.8794 3.25 15.1667 3.25C15.4509 3.2512 15.7232 3.36403 15.925 3.56417L23.5083 11.1475C23.6099 11.2482 23.6905 11.368 23.7455 11.5C23.8005 11.6321 23.8288 11.7737 23.8288 11.9167C23.8288 12.0597 23.8005 12.2013 23.7455 12.3333C23.6905 12.4653 23.6099 12.5851 23.5083 12.6858L15.925 20.2692C15.7729 20.4182 15.5803 20.5192 15.3712 20.5594C15.162 20.5996 14.9457 20.5772 14.7492 20.4952C14.5527 20.4131 14.3847 20.2749 14.2663 20.0979C14.1479 19.9209 14.0842 19.713 14.0833 19.5V16.1417H13.1625C11.4509 16.1161 9.7543 16.4634 8.19037 17.1593C6.62645 17.8552 5.23269 18.8831 4.10585 20.1717C3.97005 20.3525 3.78109 20.4862 3.56544 20.5542C3.3498 20.6222 3.11829 20.621 2.90335 20.5508C2.68462 20.477 2.49518 20.3353 2.36267 20.1462C2.23015 19.9572 2.16149 19.7308 2.16668 19.5C2.16668 9.62 10.92 7.93 14.0833 7.6375ZM13.1625 13.9533C13.8871 13.9511 14.611 13.9981 15.3292 14.0942C15.5856 14.1331 15.8196 14.2627 15.9886 14.4595C16.1576 14.6564 16.2504 14.9073 16.25 15.1667V16.8892L21.2117 11.9167L16.25 6.94417V8.66667C16.25 8.95398 16.1359 9.22953 15.9327 9.4327C15.7295 9.63586 15.454 9.75 15.1667 9.75C14.1808 9.75 6.38085 9.96667 4.69085 16.7158C7.14384 14.9073 10.1149 13.9384 13.1625 13.9533Z" fill="#087F8C"/>
</svg>
