<svg width="26" height="26" viewBox="0 0 26 26" fill="none" xmlns="http://www.w3.org/2000/svg">
<path d="M13.806 6.5L22.009 6.50325L22.1487 6.52763L22.2511 6.56013L22.3454 6.60887L22.4461 6.67713L22.5404 6.76488L22.6054 6.84612L22.6622 6.94037L22.7142 7.06712L22.7337 7.137L22.7516 7.27675V15.4375C22.7499 15.639 22.6733 15.8327 22.5367 15.981C22.4001 16.1292 22.2134 16.2214 22.0126 16.2396C21.8119 16.2578 21.6116 16.2008 21.4505 16.0796C21.2895 15.9584 21.1793 15.7817 21.1412 15.5837L21.1282 15.4375L21.125 9.27387L12.7676 17.6378C12.6332 17.7723 12.4558 17.8555 12.2663 17.8727C12.0769 17.8899 11.8874 17.8401 11.7309 17.732L11.6187 17.6378L8.93749 14.9614L4.63611 19.2628C4.4928 19.4067 4.30078 19.4918 4.09787 19.5011C3.89497 19.5105 3.69591 19.4436 3.53991 19.3135C3.38392 19.1834 3.28232 18.9996 3.25512 18.7983C3.22792 18.597 3.27711 18.3928 3.39299 18.226L3.48561 18.1122L8.36061 13.2372C8.49505 13.1027 8.67246 13.0195 8.86191 13.0023C9.05136 12.9851 9.24086 13.0349 9.39736 13.143L9.51111 13.2372L12.1924 15.9136L19.9761 8.125H13.806C13.6158 8.12506 13.4317 8.05842 13.2856 7.93668C13.1395 7.81494 13.0407 7.64581 13.0065 7.45875L12.9935 7.3125C12.9935 7.09701 13.0791 6.89035 13.2315 6.73798C13.3838 6.5856 13.5905 6.5 13.806 6.5Z" fill="#087F8C"/>
</svg>
